# xmcd CD database file
#
# Track frame offsets:
#	150
#	26840
#	56120
#	81562
#	104512
#	120875
#	144375
#	171615
#	192985
#	216227
#	236550
#
# Disc length: 3450 seconds
#
# Revision: 8
# Processed by: cddbd v1.5.1PL2 Copyright (c) Steve Scherf et al.
# Submitted via: CD2WAV32(JP) R3.22
#
DISCID=a50d780b
DTITLE=duplicate - duplicate
DYEAR=1990
DGENRE=JPop
TTITLE0=Forest Notes
TTITLE1=????????
TTITLE2=?????
TTITLE3=??????
TTITLE4=Holiday Of Planet Earth
TTITLE5=????
TTITLE6=??10???3?
TTITLE7=????????
TTITLE8=?????
TTITLE9=Echo of Hope
TTITLE10=???
EXTD=
EXTT0=
EXTT1=
EXTT2=
EXTT3=
EXTT4=
EXTT5=
EXTT6=
EXTT7=
EXTT8=
EXTT9=
EXTT10=
PLAYORDER=
